<?xml version="1.0" encoding="utf-8"?>
<!-- Generator: Adobe Illustrator 24.1.3, SVG Export Plug-In . SVG Version: 6.00 Build 0)  -->
<svg version="1.1" id="Layer_1" xmlns="http://www.w3.org/2000/svg" xmlns:xlink="http://www.w3.org/1999/xlink" x="0px" y="0px"
	 viewBox="0 0 400 300" style="enable-background:new 0 0 393.17 469.21;" xml:space="preserve">
<style type="text/css">
	.st0{fill:#8EBF3F;stroke:#6C8D3B;stroke-width:4;stroke-miterlimit:10;}
	.st1{fill:#6C8D3B;}
	.st2{fill:#8EBF3F;}
</style>
<g>
	<g>
		<path class="st0" d="M31.57,173.25c4.16,47.67,50.6,44.18,50.6,44.18S78.93,170.57,31.57,173.25z"/>
		<path class="st0" d="M229.56,95.23c42.89-21.12,20.25-61.92,20.25-61.92S207.29,53.31,229.56,95.23z"/>
		<path class="st0" d="M132.91,38.52c-26.53,39.82,11.91,66.11,11.91,66.11S171.56,66.01,132.91,38.52z"/>
		<path class="st0" d="M293.02,137.23c42.32,23.17,64.5-17.34,64.5-17.34S316.36,96.41,293.02,137.23z"/>
		<path class="st0" d="M242.64,147.68c36.82,30.84,66.92-4.46,66.92-4.46S273.95,112.3,242.64,147.68z"/>
		<path class="st0" d="M181.23,151.99c45.43,16.55,60.82-26.89,60.82-26.89S197.72,108.07,181.23,151.99z"/>
		<path class="st0" d="M150.41,126.27c48.16,4.47,51.25-41.5,51.25-41.5S154.43,79.55,150.41,126.27z"/>
		<path class="st0" d="M103.69,183.44c48.29-1.32,45.52-47.38,45.52-47.38S101.74,136.52,103.69,183.44z"/>
		<path class="st0" d="M94.67,160.93c46.31,13.99,59.08-30.27,59.08-30.27S108.51,116.12,94.67,160.93z"/>
		<path class="st0" d="M200.11,137.66c36.82,30.84,66.92-4.46,66.92-4.46S231.42,102.28,200.11,137.66z"/>
		<path class="st0" d="M165.78,93.51c45.06,17.52,61.44-25.56,61.44-25.56S183.27,49.97,165.78,93.51z"/>
		<path class="st0" d="M138.7,141.97c45.43,16.55,60.82-26.89,60.82-26.89S155.18,98.04,138.7,141.97z"/>
		<path class="st0" d="M107.88,116.25c48.16,4.47,51.25-41.5,51.25-41.5S111.9,69.53,107.88,116.25z"/>
		<path class="st0" d="M61.16,173.42c48.29-1.32,45.52-47.38,45.52-47.38S59.21,126.5,61.16,173.42z"/>
		<path class="st0" d="M119.74,111.17c46.31,13.99,59.08-30.27,59.08-30.27S133.58,66.37,119.74,111.17z"/>
		<path class="st0" d="M275.45,175.22c25.79,40,65.48,15.17,65.48,15.17S316.33,150.67,275.45,175.22z"/>
		<path class="st0" d="M244.98,121.05c37.77,29.73,66.72-6.48,66.72-6.48S275.13,84.73,244.98,121.05z"/>
		<path class="st0" d="M203.08,145.17c38.44,28.91,66.53-7.92,66.53-7.92S232.38,108.2,203.08,145.17z"/>
		<path class="st0" d="M182.52,125.88c44.77,18.22,61.87-24.59,61.87-24.59S200.74,82.62,182.52,125.88z"/>
		<path class="st0" d="M120.17,166.67c46.67,12.75,58.18-31.84,58.18-31.84S132.73,121.5,120.17,166.67z"/>
		<path class="st0" d="M182.07,77.24c40.06,26.73,65.91-11.64,65.91-11.64S209.1,38.65,182.07,77.24z"/>
		<path class="st0" d="M164.24,115.98c47.84,7.24,53.74-38.44,53.74-38.44S171.1,69.6,164.24,115.98z"/>
		<path class="st0" d="M115.04,151.44c47.23-9.41,36.3-54.41,36.3-54.41S104.77,105.45,115.04,151.44z"/>
		<path class="st0" d="M90.16,147.36c42.89-21.12,20.25-61.92,20.25-61.92S67.89,105.45,90.16,147.36z"/>
		<path class="st0" d="M105.31,304.72c42.89-21.12,20.25-61.92,20.25-61.92S83.04,262.8,105.31,304.72z"/>
		<path class="st0" d="M90.19,194.48c39.82-26.13,12.21-63.96,12.21-63.96S62.8,155.49,90.19,194.48z"/>
		<path class="st0" d="M221.65,117.91c32.34,35.27,67.04,4.22,67.04,4.22S257.58,86.93,221.65,117.91z"/>
		<path class="st0" d="M160.1,114.25c42.84,22.23,64.05-18.77,64.05-18.77S182.47,72.91,160.1,114.25z"/>
		<path class="st0" d="M136.64,91.94c47.21,10.63,56.56-34.46,56.56-34.46S147.01,46.22,136.64,91.94z"/>
		<path class="st0" d="M50.94,279.17c47.21,10.63,56.56-34.46,56.56-34.46S61.32,233.45,50.94,279.17z"/>
		<path class="st0" d="M90.2,148.16c48.12,4.92,51.66-41.02,51.66-41.02S94.68,101.48,90.2,148.16z"/>
		<path class="st0" d="M108.2,154.98c44.06,19.81,62.79-22.34,62.79-22.34S128.06,112.42,108.2,154.98z"/>
		<path class="st0" d="M307.41,181.39c32.34,35.27,67.04,4.22,67.04,4.22S343.33,150.42,307.41,181.39z"/>
		<path class="st0" d="M279.09,157.93c32.34,35.27,67.04,4.22,67.04,4.22S315.01,126.96,279.09,157.93z"/>
		<path class="st0" d="M233.06,136.75c42.84,22.23,64.05-18.77,64.05-18.77S255.43,95.41,233.06,136.75z"/>
		<path class="st0" d="M205.98,107.33c47.21,10.63,56.56-34.46,56.56-34.46S216.35,61.61,205.98,107.33z"/>
		<path class="st0" d="M151.78,157.87c48.12,4.92,51.66-41.02,51.66-41.02S156.25,111.19,151.78,157.87z"/>
		<path class="st0" d="M180.58,131.96c44.06,19.81,62.79-22.34,62.79-22.34S200.44,89.41,180.58,131.96z"/>
		<path class="st0" d="M247.96,148.89C263.24,193.6,308,178.77,308,178.77S293.82,134.6,247.96,148.89z"/>
		<path class="st0" d="M256.56,144.61c15.28,44.71,60.04,29.88,60.04,29.88S302.42,130.32,256.56,144.61z"/>
		<path class="st0" d="M170.47,143.84c35.82,31.93,67.05-2.43,67.05-2.43S202.91,109.44,170.47,143.84z"/>
		<path class="st0" d="M272.04,129.44c29.48,37.54,66.58,9.2,66.58,9.2S310.34,101.26,272.04,129.44z"/>
		<path class="st0" d="M206.07,122.83c30.33,36.91,66.75,7.76,66.75,7.76S243.7,93.82,206.07,122.83z"/>
		<path class="st0" d="M229.29,108.47c39.12,28.03,66.3-9.45,66.3-9.45S257.68,70.82,229.29,108.47z"/>
		<path class="st0" d="M120.29,131.09c42.32,23.17,64.5-17.34,64.5-17.34S143.63,90.27,120.29,131.09z"/>
		<path class="st0" d="M24.62,231.37c42.32,23.17,64.5-17.34,64.5-17.34S47.96,190.55,24.62,231.37z"/>
		<path class="st0" d="M233.95,155.7c32.45,35.17,67.05,4.02,67.05,4.02S269.77,124.61,233.95,155.7z"/>
		<path class="st0" d="M305.33,228.79c15.28,44.71,60.04,29.88,60.04,29.88S351.18,214.5,305.33,228.79z"/>
		<path class="st0" d="M257.78,230.16c36.82,30.84,66.92-4.46,66.92-4.46S289.1,194.78,257.78,230.16z"/>
		<path class="st0" d="M180.93,175.99c45.06,17.52,61.44-25.56,61.44-25.56S198.42,132.44,180.93,175.99z"/>
		<path class="st0" d="M123.03,198.73c48.16,4.47,51.25-41.5,51.25-41.5S127.05,152,123.03,198.73z"/>
		<path class="st0" d="M71.93,265.48c48.29-1.32,45.52-47.38,45.52-47.38S69.97,218.56,71.93,265.48z"/>
		<path class="st0" d="M85.14,285.86c48.29-1.32,45.52-47.38,45.52-47.38S83.19,238.94,85.14,285.86z"/>
		<path class="st0" d="M253.85,234.39c25.79,40,65.48,15.17,65.48,15.17S294.73,209.84,253.85,234.39z"/>
		<path class="st0" d="M260.13,203.53c37.77,29.73,66.72-6.48,66.72-6.48S290.28,167.21,260.13,203.53z"/>
		<path class="st0" d="M197.21,159.71c40.06,26.73,65.91-11.64,65.91-11.64S224.25,121.13,197.21,159.71z"/>
		<path class="st0" d="M112.52,195.32c47.45-8.39,37.55-53.6,37.55-53.6S103.31,149.14,112.52,195.32z"/>
		<path class="st0" d="M105.31,229.84c42.89-21.12,20.25-61.92,20.25-61.92S83.04,187.92,105.31,229.84z"/>
		<path class="st0" d="M66.52,249.21c39.82-26.13,12.21-63.96,12.21-63.96S39.13,210.22,66.52,249.21z"/>
		<path class="st0" d="M49.08,215.83c46.56-12.05,32.98-56.39,32.98-56.39S36.1,170.46,49.08,215.83z"/>
		<path class="st0" d="M71.8,219.62c46.56-12.05,32.98-56.39,32.98-56.39S58.82,174.26,71.8,219.62z"/>
		<path class="st0" d="M267.32,113.31c47.21,10.63,56.56-34.46,56.56-34.46S277.69,67.59,267.32,113.31z"/>
		<path class="st0" d="M232.63,93.47c48.12,4.92,51.66-41.02,51.66-41.02S237.1,46.79,232.63,93.47z"/>
		<path class="st0" d="M303.85,204.6"/>
		<path class="st0" d="M151.78,174.41c47.21,10.63,56.56-34.46,56.56-34.46S162.16,128.69,151.78,174.41z"/>
		<path class="st0" d="M79.22,220.46c48.12,4.92,51.66-41.02,51.66-41.02S83.7,173.78,79.22,220.46z"/>
		<path class="st0" d="M83.07,262.22c48.12,4.92,51.66-41.02,51.66-41.02S87.55,215.54,83.07,262.22z"/>
		<path class="st0" d="M95.41,59.64c-11.9,46.34,33.07,58.47,33.07,58.47S140.97,72.83,95.41,59.64z"/>
		<path class="st0" d="M178.46,18.88c-37,30.33-7.92,66.71-7.92,66.71S207.4,56.46,178.46,18.88z"/>
		<path class="st0" d="M47.16,104.53c4.16,47.67,50.6,44.18,50.6,44.18S94.52,101.85,47.16,104.53z"/>
		<path class="st0" d="M281.65,224.01c10.2,46.75,55.81,37.38,55.81,37.38S328.28,215.33,281.65,224.01z"/>
		<path class="st0" d="M265.11,244.68c-11.9,46.34,33.07,58.47,33.07,58.47S310.67,257.87,265.11,244.68z"/>
		<path class="st0" d="M274.67,240.07c4.16,47.67,50.6,44.18,50.6,44.18S322.02,237.39,274.67,240.07z"/>
		<path class="st0" d="M249.77,196.19c18.17,44.72,60.91,27.29,60.91,27.29S293.61,179.26,249.77,196.19z"/>
		<path class="st0" d="M218.61,177.01c44.71,18.5,61.59-24.35,61.59-24.35S236.59,133.72,218.61,177.01z"/>
		<path class="st0" d="M275.31,202.87c15.28,44.71,60.04,29.88,60.04,29.88S321.16,188.58,275.31,202.87z"/>
		<path class="st0" d="M293.13,185.33c15.28,44.71,60.04,29.88,60.04,29.88S338.98,171.04,293.13,185.33z"/>
		<path class="st0" d="M244.44,190.95c39.12,28.03,66.3-9.45,66.3-9.45S272.82,153.29,244.44,190.95z"/>
	</g>
</g>
<g>
	<g>
		<g>
			<g>
				<path class="st1" d="M147.6,232.89c3.83,4.94,9.98,7.85,16.24,7.59c3.28-0.14,6.52-1.07,9.34-2.75c2.89-1.72,5.3-4.11,7.66-6.48
					c1.36-1.37-0.76-3.49-2.12-2.12c-4.2,4.22-8.62,8.08-14.87,8.35c-5.56,0.23-10.73-2.34-14.12-6.71
					C148.53,229.24,146.42,231.38,147.6,232.89L147.6,232.89z"/>
			</g>
		</g>
		<g>
			<g>
				<path class="st1" d="M208.46,230.98c0.75,2.89,4.56,4.02,7.08,4.81c2.86,0.89,5.9,1.31,8.89,1.28
					c6.08-0.06,12.13-1.98,17.01-5.63c1.53-1.14,0.03-3.75-1.51-2.59c-4.16,3.11-9.15,4.92-14.34,5.19
					c-2.55,0.13-5.1-0.08-7.58-0.68c-1.24-0.3-2.46-0.68-3.64-1.17c-0.94-0.38-2.72-0.92-3.01-2.01
					C210.87,228.32,207.97,229.11,208.46,230.98L208.46,230.98z"/>
			</g>
		</g>
		<g>
			<g>
				<path class="st1" d="M212.37,232.87c-0.53,1.1-1.05,2.19-1.58,3.29c-0.18,0.37-0.26,0.75-0.15,1.16c0.1,0.35,0.36,0.72,0.69,0.9
					c0.35,0.18,0.77,0.28,1.16,0.15c0.35-0.11,0.73-0.34,0.9-0.69c0.53-1.1,1.05-2.19,1.58-3.29c0.18-0.37,0.26-0.75,0.15-1.16
					c-0.1-0.35-0.36-0.73-0.69-0.9c-0.35-0.18-0.77-0.28-1.16-0.15C212.91,232.3,212.53,232.53,212.37,232.87L212.37,232.87z"/>
			</g>
		</g>
		<g>
			<g>
				<path class="st1" d="M218.2,234.98c-0.17,1.76-0.33,3.52-0.5,5.29c-0.03,0.36,0.19,0.81,0.44,1.06
					c0.26,0.26,0.69,0.46,1.06,0.44c0.88-0.04,1.42-0.66,1.5-1.5c0.17-1.76,0.33-3.52,0.5-5.29c0.03-0.36-0.19-0.81-0.44-1.06
					c-0.26-0.26-0.69-0.46-1.06-0.44C218.82,233.52,218.28,234.14,218.2,234.98L218.2,234.98z"/>
			</g>
		</g>
		<g>
			<g>
				<path class="st1" d="M228.3,236.41c0.97,2.71,1.82,5.47,2.54,8.26c0.2,0.76,1.08,1.29,1.85,1.05c0.78-0.25,1.26-1.03,1.05-1.85
					c-0.72-2.79-1.57-5.55-2.54-8.26c-0.26-0.74-1.03-1.31-1.85-1.05C228.62,234.8,228.02,235.62,228.3,236.41L228.3,236.41z"/>
			</g>
		</g>
		<g>
			<g>
				<path class="st1" d="M236.39,234.66c0.98,1.75,1.96,3.5,2.94,5.25c0.38,0.69,1.38,0.97,2.05,0.54c0.69-0.45,0.95-1.32,0.54-2.05
					c-0.98-1.75-1.96-3.5-2.94-5.25c-0.38-0.69-1.38-0.97-2.05-0.54C236.23,233.05,235.98,233.92,236.39,234.66L236.39,234.66z"/>
			</g>
		</g>
		<g>
			<g>
				<path class="st1" d="M177.25,234.18c0.16,0.19,0.32,0.38,0.47,0.58c-0.08-0.1-0.16-0.2-0.23-0.3c0.78,1.01,1.42,2.11,1.91,3.28
					c-0.05-0.12-0.1-0.24-0.15-0.36c0.06,0.14,0.11,0.28,0.17,0.42c0.15,0.38,0.33,0.69,0.69,0.9c0.32,0.19,0.8,0.27,1.16,0.15
					c0.36-0.12,0.71-0.34,0.9-0.69c0.18-0.34,0.29-0.79,0.15-1.16c-0.7-1.82-1.67-3.46-2.94-4.94c-0.24-0.28-0.71-0.44-1.06-0.44
					c-0.37,0-0.81,0.16-1.06,0.44c-0.26,0.29-0.46,0.66-0.44,1.06C176.83,233.53,176.98,233.86,177.25,234.18L177.25,234.18z"/>
			</g>
		</g>
		<g>
			<g>
				<path class="st1" d="M170.67,237.56c0.36,1.99,0.71,3.97,1.07,5.96c0.14,0.77,1.12,1.28,1.85,1.05c0.83-0.27,1.2-1.02,1.05-1.85
					c-0.36-1.99-0.71-3.97-1.07-5.96c-0.14-0.77-1.12-1.28-1.85-1.05C170.88,235.98,170.52,236.73,170.67,237.56L170.67,237.56z"/>
			</g>
		</g>
		<g>
			<g>
				<path class="st1" d="M159.38,239.77c0.03,0.19,0.06,0.39,0.09,0.58c-0.02-0.13-0.04-0.27-0.05-0.4c0.18,1.34,0.18,2.68,0,4.02
					c0.02-0.13,0.04-0.27,0.05-0.4c-0.02,0.16-0.05,0.32-0.07,0.49c-0.07,0.41-0.07,0.78,0.15,1.16c0.18,0.31,0.54,0.61,0.9,0.69
					c0.72,0.16,1.71-0.22,1.85-1.05c0.32-1.98,0.32-3.91-0.02-5.89c-0.06-0.35-0.4-0.72-0.69-0.9c-0.32-0.19-0.8-0.27-1.16-0.15
					C159.6,238.2,159.24,238.94,159.38,239.77L159.38,239.77z"/>
			</g>
		</g>
		<g>
			<g>
				<path class="st1" d="M151.7,235.73c-0.62,1.27-1.23,2.54-1.85,3.81c-0.18,0.37-0.26,0.75-0.15,1.16c0.1,0.35,0.36,0.73,0.69,0.9
					c0.35,0.18,0.77,0.28,1.16,0.15c0.36-0.11,0.73-0.34,0.9-0.69c0.62-1.27,1.23-2.54,1.85-3.81c0.18-0.37,0.26-0.75,0.15-1.16
					c-0.1-0.35-0.36-0.73-0.69-0.9c-0.35-0.18-0.77-0.28-1.16-0.15C152.25,235.15,151.87,235.38,151.7,235.73L151.7,235.73z"/>
			</g>
		</g>
	</g>
</g>
</svg>
